# xmcd
#
# Track frame offsets:
#	150
#	20340
#	36730
#	49315
#	59300
#	76988
#	92768
#	113010
#	127875
#	143050
#	155918
#	169788
#	185510
#	196835
#	211018
#	231775
#	241923
#	255823
#	269468
#	281978
#
# Disc length: 3902 seconds
#
# Revision: 0
# Processed by: cddbd v1.5.1PL0 Copyright (c) Steve Scherf et al.
# Submitted via: dBpowerAMP V4.0
#
DISCID=180f3c14
DTITLE=Champion Jack Dupree - The Blues of Champion Jack Dupree
DYEAR=1991
DGENRE=Blues
TTITLE0=I Feel Like a Millionaire
TTITLE1=You're The One
TTITLE2=Gin Mill Sal
TTITLE3=Talkin' Out Of My Head
TTITLE4=I Got a Little Girl
TTITLE5=Drinkin' Wine Spodie-Odie
TTITLE6=Please Send Me Someone To Love
TTITLE7=Anyone Here Want To Buy Cabbage
TTITLE8=24 Hours
TTITLE9=She Said No
TTITLE10=Come Back Baby
TTITLE11=Chicken Shack
TTITLE12=Sporting Life Blues
TTITLE13=You Got Me Way Down Here
TTITLE14=I Just Want To Be Free
TTITLE15=Bad Dog Blues
TTITLE16=Bus Station
TTITLE17=When I Left Home
TTITLE18=Cross Eyed Woman
TTITLE19=I Lost a Good Woman
EXTD=
EXTT0=
EXTT1=
EXTT2=
EXTT3=
EXTT4=
EXTT5=
EXTT6=
EXTT7=
EXTT8=
EXTT9=
EXTT10=
EXTT11=
EXTT12=
EXTT13=
EXTT14=
EXTT15=
EXTT16=
EXTT17=
EXTT18=
EXTT19=
PLAYORDER=
